<svg width="260" height="218" viewBox="0 0 260 218" fill="none" xmlns="http://www.w3.org/2000/svg">
<path d="M129.713 0C64.8001 0 10.8791 157.427 0.208983 190.695C-0.802103 193.847 1.9852 196.823 5.77523 196.823H28.4259C31.1445 196.823 33.491 195.233 34.1135 192.95C40.9757 167.772 81.1633 28.3559 129.713 28.3559C178.263 28.3559 218.45 167.772 225.313 192.95C225.935 195.233 228.281 196.823 231.001 196.823H253.652C257.442 196.823 260.229 193.847 259.218 190.695C248.547 157.427 194.626 0 129.713 0Z" fill="white"/>
<path d="M153.854 105.5H136.667V93C136.667 91.3424 135.942 89.7527 134.653 88.5806C133.364 87.4085 131.615 86.75 129.792 86.75C127.968 86.75 126.219 87.4085 124.93 88.5806C123.641 89.7527 122.917 91.3424 122.917 93V105.5H105.729C92.0538 105.5 78.9387 110.439 69.2688 119.229C59.599 128.02 54.1665 139.943 54.1665 152.375C54.1665 164.807 59.599 176.73 69.2688 185.521C78.9387 194.311 92.0538 199.25 105.729 199.25H153.854C167.529 199.25 180.644 194.311 190.314 185.521C199.984 176.73 205.417 164.807 205.417 152.375C205.417 139.943 199.984 128.02 190.314 119.229C180.644 110.439 167.529 105.5 153.854 105.5ZM153.854 186.75H105.729C95.7005 186.75 86.0827 183.128 78.9915 176.682C71.9003 170.235 67.9165 161.492 67.9165 152.375C67.9165 143.258 71.9003 134.515 78.9915 128.068C86.0827 121.622 95.7005 118 105.729 118H153.854C163.883 118 173.5 121.622 180.591 128.068C187.683 134.515 191.667 143.258 191.667 152.375C191.667 161.492 187.683 170.235 180.591 176.682C173.5 183.128 163.883 186.75 153.854 186.75ZM122.917 152.375C122.917 154.033 122.192 155.622 120.903 156.794C119.614 157.967 117.865 158.625 116.042 158.625H109.167V164.875C109.167 166.533 108.442 168.122 107.153 169.294C105.864 170.467 104.115 171.125 102.292 171.125C100.468 171.125 98.7195 170.467 97.4301 169.294C96.1408 168.122 95.4165 166.533 95.4165 164.875V158.625H88.5415C86.7181 158.625 84.9695 157.967 83.6801 156.794C82.3908 155.622 81.6665 154.033 81.6665 152.375C81.6665 150.717 82.3908 149.128 83.6801 147.956C84.9695 146.783 86.7181 146.125 88.5415 146.125H95.4165V139.875C95.4165 138.217 96.1408 136.628 97.4301 135.456C98.7195 134.283 100.468 133.625 102.292 133.625C104.115 133.625 105.864 134.283 107.153 135.456C108.442 136.628 109.167 138.217 109.167 139.875V146.125H116.042C117.865 146.125 119.614 146.783 120.903 147.956C122.192 149.128 122.917 150.717 122.917 152.375ZM177.917 143C177.917 144.236 177.513 145.445 176.758 146.472C176.002 147.5 174.929 148.301 173.672 148.774C172.416 149.247 171.034 149.371 169.7 149.13C168.367 148.889 167.142 148.293 166.18 147.419C165.219 146.545 164.564 145.432 164.299 144.219C164.033 143.007 164.169 141.75 164.69 140.608C165.21 139.466 166.091 138.49 167.222 137.803C168.353 137.117 169.682 136.75 171.042 136.75C172.865 136.75 174.614 137.408 175.903 138.581C177.192 139.753 177.917 141.342 177.917 143ZM164.167 161.75C164.167 162.986 163.763 164.195 163.008 165.222C162.252 166.25 161.179 167.051 159.922 167.524C158.666 167.997 157.284 168.121 155.95 167.88C154.617 167.639 153.392 167.043 152.43 166.169C151.469 165.295 150.814 164.182 150.549 162.969C150.283 161.757 150.419 160.5 150.94 159.358C151.46 158.216 152.341 157.24 153.472 156.553C154.603 155.867 155.932 155.5 157.292 155.5C159.115 155.5 160.864 156.158 162.153 157.331C163.442 158.503 164.167 160.092 164.167 161.75Z" fill="white"/>
</svg>
