<svg width="290" height="290" viewBox="0 0 290 290" fill="none" xmlns="http://www.w3.org/2000/svg">
<circle cx="145" cy="145" r="145" fill="black"/>
<path d="M144.713 17C79.8001 17 25.8791 174.427 15.209 207.695C14.1979 210.847 16.9852 213.823 20.7752 213.823H43.4259C46.1445 213.823 48.491 212.233 49.1135 209.95C55.9757 184.772 96.1633 45.3559 144.713 45.3559C193.263 45.3559 233.45 184.772 240.313 209.95C240.935 212.233 243.281 213.823 246.001 213.823H268.652C272.442 213.823 275.229 210.847 274.218 207.695C263.547 174.427 209.626 17 144.713 17Z" fill="#FBFBFB"/>
<path d="M168.854 122.5H151.667V110C151.667 108.342 150.942 106.753 149.653 105.581C148.364 104.408 146.615 103.75 144.792 103.75C142.968 103.75 141.219 104.408 139.93 105.581C138.641 106.753 137.917 108.342 137.917 110V122.5H120.729C107.054 122.5 93.9387 127.439 84.2688 136.229C74.599 145.02 69.1665 156.943 69.1665 169.375C69.1665 181.807 74.599 193.73 84.2688 202.521C93.9387 211.311 107.054 216.25 120.729 216.25H168.854C182.529 216.25 195.644 211.311 205.314 202.521C214.984 193.73 220.417 181.807 220.417 169.375C220.417 156.943 214.984 145.02 205.314 136.229C195.644 127.439 182.529 122.5 168.854 122.5ZM168.854 203.75H120.729C110.701 203.75 101.083 200.128 93.9915 193.682C86.9003 187.235 82.9165 178.492 82.9165 169.375C82.9165 160.258 86.9003 151.515 93.9915 145.068C101.083 138.622 110.701 135 120.729 135H168.854C178.883 135 188.5 138.622 195.591 145.068C202.683 151.515 206.667 160.258 206.667 169.375C206.667 178.492 202.683 187.235 195.591 193.682C188.5 200.128 178.883 203.75 168.854 203.75ZM137.917 169.375C137.917 171.033 137.192 172.622 135.903 173.794C134.614 174.967 132.865 175.625 131.042 175.625H124.167V181.875C124.167 183.533 123.442 185.122 122.153 186.294C120.864 187.467 119.115 188.125 117.292 188.125C115.468 188.125 113.719 187.467 112.43 186.294C111.141 185.122 110.417 183.533 110.417 181.875V175.625H103.542C101.718 175.625 99.9695 174.967 98.6801 173.794C97.3908 172.622 96.6665 171.033 96.6665 169.375C96.6665 167.717 97.3908 166.128 98.6801 164.956C99.9695 163.783 101.718 163.125 103.542 163.125H110.417V156.875C110.417 155.217 111.141 153.628 112.43 152.456C113.719 151.283 115.468 150.625 117.292 150.625C119.115 150.625 120.864 151.283 122.153 152.456C123.442 153.628 124.167 155.217 124.167 156.875V163.125H131.042C132.865 163.125 134.614 163.783 135.903 164.956C137.192 166.128 137.917 167.717 137.917 169.375ZM192.917 160C192.917 161.236 192.513 162.445 191.758 163.472C191.002 164.5 189.929 165.301 188.672 165.774C187.416 166.247 186.034 166.371 184.7 166.13C183.367 165.889 182.142 165.293 181.18 164.419C180.219 163.545 179.564 162.432 179.299 161.219C179.033 160.007 179.169 158.75 179.69 157.608C180.21 156.466 181.091 155.49 182.222 154.803C183.353 154.117 184.682 153.75 186.042 153.75C187.865 153.75 189.614 154.408 190.903 155.581C192.192 156.753 192.917 158.342 192.917 160ZM179.167 178.75C179.167 179.986 178.763 181.195 178.008 182.222C177.252 183.25 176.179 184.051 174.922 184.524C173.666 184.997 172.284 185.121 170.95 184.88C169.617 184.639 168.392 184.043 167.43 183.169C166.469 182.295 165.814 181.182 165.549 179.969C165.283 178.757 165.419 177.5 165.94 176.358C166.46 175.216 167.341 174.24 168.472 173.553C169.603 172.867 170.932 172.5 172.292 172.5C174.115 172.5 175.864 173.158 177.153 174.331C178.442 175.503 179.167 177.092 179.167 178.75Z" fill="#FBFBFB"/>
</svg>
